<mxfile host="app.diagrams.net" agent="Mozilla/5.0 (Windows NT 10.0; Win64; x64) AppleWebKit/537.36 (KHTML, like Gecko) Chrome/140.0.0.0 Safari/537.36 Edg/140.0.0.0" version="28.2.5">
  <diagram name="Página-1" id="p6FyP2HjMKbgZpes4Q6h">
    <mxGraphModel grid="1" page="1" gridSize="10" guides="1" tooltips="1" connect="1" arrows="1" fold="1" pageScale="1" pageWidth="827" pageHeight="1169" math="0" shadow="0">
      <root>
        <mxCell id="0" />
        <mxCell id="1" parent="0" />
        <mxCell id="M_mfojRkhb9kvfDVpnwB-1" value="Disco" style="rounded=0;whiteSpace=wrap;html=1;" vertex="1" parent="1">
          <mxGeometry x="140" y="191" width="90" height="30" as="geometry" />
        </mxCell>
        <mxCell id="M_mfojRkhb9kvfDVpnwB-2" value="Cantante" style="rounded=0;whiteSpace=wrap;html=1;" vertex="1" parent="1">
          <mxGeometry x="500" y="191" width="90" height="30" as="geometry" />
        </mxCell>
        <mxCell id="M_mfojRkhb9kvfDVpnwB-3" value="Canciones" style="rounded=0;whiteSpace=wrap;html=1;" vertex="1" parent="1">
          <mxGeometry x="360" y="381" width="90" height="30" as="geometry" />
        </mxCell>
        <mxCell id="M_mfojRkhb9kvfDVpnwB-4" value="Género Musical" style="rounded=0;whiteSpace=wrap;html=1;" vertex="1" parent="1">
          <mxGeometry x="270" y="91" width="90" height="30" as="geometry" />
        </mxCell>
        <mxCell id="M_mfojRkhb9kvfDVpnwB-5" value="Tiene" style="rhombus;whiteSpace=wrap;html=1;" vertex="1" parent="1">
          <mxGeometry x="280" y="291" width="60" height="50" as="geometry" />
        </mxCell>
        <mxCell id="M_mfojRkhb9kvfDVpnwB-6" value="Posición" style="ellipse;whiteSpace=wrap;html=1;" vertex="1" parent="1">
          <mxGeometry x="190" y="320" width="80" height="30" as="geometry" />
        </mxCell>
        <mxCell id="M_mfojRkhb9kvfDVpnwB-7" value="&lt;u&gt;ID&lt;/u&gt;" style="ellipse;whiteSpace=wrap;html=1;" vertex="1" parent="1">
          <mxGeometry x="290" y="441" width="80" height="30" as="geometry" />
        </mxCell>
        <mxCell id="M_mfojRkhb9kvfDVpnwB-8" value="Título" style="ellipse;whiteSpace=wrap;html=1;" vertex="1" parent="1">
          <mxGeometry x="430" y="436" width="90" height="35" as="geometry" />
        </mxCell>
        <mxCell id="M_mfojRkhb9kvfDVpnwB-9" value="Pertenece" style="rhombus;whiteSpace=wrap;html=1;" vertex="1" parent="1">
          <mxGeometry x="330" y="171" width="70" height="60" as="geometry" />
        </mxCell>
        <mxCell id="M_mfojRkhb9kvfDVpnwB-11" value="&lt;u&gt;ID&lt;/u&gt;" style="ellipse;whiteSpace=wrap;html=1;" vertex="1" parent="1">
          <mxGeometry x="50" y="151" width="80" height="30" as="geometry" />
        </mxCell>
        <mxCell id="M_mfojRkhb9kvfDVpnwB-12" value="Título" style="ellipse;whiteSpace=wrap;html=1;" vertex="1" parent="1">
          <mxGeometry x="40" y="211" width="80" height="30" as="geometry" />
        </mxCell>
        <mxCell id="M_mfojRkhb9kvfDVpnwB-13" value="Precio" style="ellipse;whiteSpace=wrap;html=1;" vertex="1" parent="1">
          <mxGeometry x="130" y="251" width="80" height="30" as="geometry" />
        </mxCell>
        <mxCell id="M_mfojRkhb9kvfDVpnwB-14" value="Contiene" style="rhombus;whiteSpace=wrap;html=1;" vertex="1" parent="1">
          <mxGeometry x="170" y="111" width="60" height="50" as="geometry" />
        </mxCell>
        <mxCell id="M_mfojRkhb9kvfDVpnwB-16" value="&lt;u&gt;ID&lt;/u&gt;" style="ellipse;whiteSpace=wrap;html=1;" vertex="1" parent="1">
          <mxGeometry x="280" y="51" width="80" height="30" as="geometry" />
        </mxCell>
        <mxCell id="M_mfojRkhb9kvfDVpnwB-17" value="Descripción" style="ellipse;whiteSpace=wrap;html=1;" vertex="1" parent="1">
          <mxGeometry x="374" y="81" width="80" height="30" as="geometry" />
        </mxCell>
        <mxCell id="M_mfojRkhb9kvfDVpnwB-18" value="" style="endArrow=none;html=1;rounded=0;entryX=0.5;entryY=1;entryDx=0;entryDy=0;exitX=0.5;exitY=0;exitDx=0;exitDy=0;" edge="1" parent="1" source="M_mfojRkhb9kvfDVpnwB-4" target="M_mfojRkhb9kvfDVpnwB-16">
          <mxGeometry width="50" height="50" relative="1" as="geometry">
            <mxPoint x="470" y="230" as="sourcePoint" />
            <mxPoint x="520" y="180" as="targetPoint" />
          </mxGeometry>
        </mxCell>
        <mxCell id="M_mfojRkhb9kvfDVpnwB-19" value="" style="endArrow=none;html=1;rounded=0;entryX=0;entryY=1;entryDx=0;entryDy=0;exitX=1;exitY=0.75;exitDx=0;exitDy=0;" edge="1" parent="1" source="M_mfojRkhb9kvfDVpnwB-4" target="M_mfojRkhb9kvfDVpnwB-17">
          <mxGeometry width="50" height="50" relative="1" as="geometry">
            <mxPoint x="470" y="230" as="sourcePoint" />
            <mxPoint x="520" y="180" as="targetPoint" />
          </mxGeometry>
        </mxCell>
        <mxCell id="M_mfojRkhb9kvfDVpnwB-20" value="" style="endArrow=none;html=1;rounded=0;entryX=0;entryY=1;entryDx=0;entryDy=0;exitX=1;exitY=0.5;exitDx=0;exitDy=0;" edge="1" parent="1" source="M_mfojRkhb9kvfDVpnwB-14" target="M_mfojRkhb9kvfDVpnwB-4">
          <mxGeometry width="50" height="50" relative="1" as="geometry">
            <mxPoint x="470" y="230" as="sourcePoint" />
            <mxPoint x="520" y="180" as="targetPoint" />
          </mxGeometry>
        </mxCell>
        <mxCell id="M_mfojRkhb9kvfDVpnwB-21" value="" style="endArrow=none;html=1;rounded=0;entryX=0.5;entryY=1;entryDx=0;entryDy=0;exitX=0.5;exitY=0;exitDx=0;exitDy=0;" edge="1" parent="1" source="M_mfojRkhb9kvfDVpnwB-1" target="M_mfojRkhb9kvfDVpnwB-14">
          <mxGeometry width="50" height="50" relative="1" as="geometry">
            <mxPoint x="470" y="230" as="sourcePoint" />
            <mxPoint x="520" y="180" as="targetPoint" />
          </mxGeometry>
        </mxCell>
        <mxCell id="M_mfojRkhb9kvfDVpnwB-22" value="" style="endArrow=none;html=1;rounded=0;entryX=1;entryY=1;entryDx=0;entryDy=0;exitX=0;exitY=0;exitDx=0;exitDy=0;" edge="1" parent="1" source="M_mfojRkhb9kvfDVpnwB-1" target="M_mfojRkhb9kvfDVpnwB-11">
          <mxGeometry width="50" height="50" relative="1" as="geometry">
            <mxPoint x="470" y="230" as="sourcePoint" />
            <mxPoint x="520" y="180" as="targetPoint" />
          </mxGeometry>
        </mxCell>
        <mxCell id="M_mfojRkhb9kvfDVpnwB-23" value="" style="endArrow=none;html=1;rounded=0;entryX=1;entryY=0.5;entryDx=0;entryDy=0;exitX=0;exitY=1;exitDx=0;exitDy=0;" edge="1" parent="1" source="M_mfojRkhb9kvfDVpnwB-1" target="M_mfojRkhb9kvfDVpnwB-12">
          <mxGeometry width="50" height="50" relative="1" as="geometry">
            <mxPoint x="470" y="230" as="sourcePoint" />
            <mxPoint x="520" y="180" as="targetPoint" />
          </mxGeometry>
        </mxCell>
        <mxCell id="M_mfojRkhb9kvfDVpnwB-24" value="" style="endArrow=none;html=1;rounded=0;entryX=0.5;entryY=0;entryDx=0;entryDy=0;exitX=0.5;exitY=1;exitDx=0;exitDy=0;" edge="1" parent="1" source="M_mfojRkhb9kvfDVpnwB-1" target="M_mfojRkhb9kvfDVpnwB-13">
          <mxGeometry width="50" height="50" relative="1" as="geometry">
            <mxPoint x="470" y="230" as="sourcePoint" />
            <mxPoint x="520" y="180" as="targetPoint" />
          </mxGeometry>
        </mxCell>
        <mxCell id="M_mfojRkhb9kvfDVpnwB-25" value="" style="endArrow=none;html=1;rounded=0;entryX=1;entryY=0.5;entryDx=0;entryDy=0;exitX=0;exitY=0.5;exitDx=0;exitDy=0;" edge="1" parent="1" source="M_mfojRkhb9kvfDVpnwB-9" target="M_mfojRkhb9kvfDVpnwB-1">
          <mxGeometry width="50" height="50" relative="1" as="geometry">
            <mxPoint x="470" y="230" as="sourcePoint" />
            <mxPoint x="520" y="180" as="targetPoint" />
          </mxGeometry>
        </mxCell>
        <mxCell id="M_mfojRkhb9kvfDVpnwB-26" value="" style="endArrow=none;html=1;rounded=0;exitX=1;exitY=0.5;exitDx=0;exitDy=0;entryX=0;entryY=0.5;entryDx=0;entryDy=0;" edge="1" parent="1" source="M_mfojRkhb9kvfDVpnwB-9" target="M_mfojRkhb9kvfDVpnwB-2">
          <mxGeometry width="50" height="50" relative="1" as="geometry">
            <mxPoint x="470" y="230" as="sourcePoint" />
            <mxPoint x="520" y="180" as="targetPoint" />
          </mxGeometry>
        </mxCell>
        <mxCell id="M_mfojRkhb9kvfDVpnwB-27" value="" style="endArrow=none;html=1;rounded=0;entryX=1;entryY=1;entryDx=0;entryDy=0;" edge="1" parent="1" target="M_mfojRkhb9kvfDVpnwB-1">
          <mxGeometry width="50" height="50" relative="1" as="geometry">
            <mxPoint x="310" y="290" as="sourcePoint" />
            <mxPoint x="520" y="180" as="targetPoint" />
          </mxGeometry>
        </mxCell>
        <mxCell id="M_mfojRkhb9kvfDVpnwB-28" value="" style="endArrow=none;html=1;rounded=0;entryX=0;entryY=0;entryDx=0;entryDy=0;exitX=1;exitY=1;exitDx=0;exitDy=0;" edge="1" parent="1" source="M_mfojRkhb9kvfDVpnwB-5" target="M_mfojRkhb9kvfDVpnwB-3">
          <mxGeometry width="50" height="50" relative="1" as="geometry">
            <mxPoint x="470" y="230" as="sourcePoint" />
            <mxPoint x="520" y="180" as="targetPoint" />
          </mxGeometry>
        </mxCell>
        <mxCell id="M_mfojRkhb9kvfDVpnwB-29" value="" style="endArrow=none;html=1;rounded=0;entryX=1;entryY=0;entryDx=0;entryDy=0;exitX=0;exitY=0.5;exitDx=0;exitDy=0;" edge="1" parent="1" source="M_mfojRkhb9kvfDVpnwB-5" target="M_mfojRkhb9kvfDVpnwB-6">
          <mxGeometry width="50" height="50" relative="1" as="geometry">
            <mxPoint x="470" y="230" as="sourcePoint" />
            <mxPoint x="520" y="180" as="targetPoint" />
          </mxGeometry>
        </mxCell>
        <mxCell id="M_mfojRkhb9kvfDVpnwB-30" value="" style="endArrow=none;html=1;rounded=0;entryX=0;entryY=1;entryDx=0;entryDy=0;exitX=0.5;exitY=0;exitDx=0;exitDy=0;" edge="1" parent="1" source="M_mfojRkhb9kvfDVpnwB-7" target="M_mfojRkhb9kvfDVpnwB-3">
          <mxGeometry width="50" height="50" relative="1" as="geometry">
            <mxPoint x="470" y="230" as="sourcePoint" />
            <mxPoint x="520" y="180" as="targetPoint" />
          </mxGeometry>
        </mxCell>
        <mxCell id="M_mfojRkhb9kvfDVpnwB-31" value="" style="endArrow=none;html=1;rounded=0;entryX=1;entryY=1;entryDx=0;entryDy=0;exitX=0.5;exitY=0;exitDx=0;exitDy=0;" edge="1" parent="1" source="M_mfojRkhb9kvfDVpnwB-8" target="M_mfojRkhb9kvfDVpnwB-3">
          <mxGeometry width="50" height="50" relative="1" as="geometry">
            <mxPoint x="470" y="230" as="sourcePoint" />
            <mxPoint x="520" y="180" as="targetPoint" />
          </mxGeometry>
        </mxCell>
        <mxCell id="M_mfojRkhb9kvfDVpnwB-32" value="Nombre" style="ellipse;whiteSpace=wrap;html=1;" vertex="1" parent="1">
          <mxGeometry x="500" y="141" width="80" height="30" as="geometry" />
        </mxCell>
        <mxCell id="M_mfojRkhb9kvfDVpnwB-33" value="País" style="ellipse;whiteSpace=wrap;html=1;" vertex="1" parent="1">
          <mxGeometry x="600" y="151" width="80" height="30" as="geometry" />
        </mxCell>
        <mxCell id="M_mfojRkhb9kvfDVpnwB-34" value="&lt;u&gt;ID&lt;/u&gt;" style="ellipse;whiteSpace=wrap;html=1;" vertex="1" parent="1">
          <mxGeometry x="610" y="211" width="80" height="30" as="geometry" />
        </mxCell>
        <mxCell id="M_mfojRkhb9kvfDVpnwB-35" value="N...M" style="text;html=1;align=center;verticalAlign=middle;resizable=0;points=[];autosize=1;strokeColor=none;fillColor=none;" vertex="1" parent="1">
          <mxGeometry x="315" y="278" width="50" height="30" as="geometry" />
        </mxCell>
        <mxCell id="M_mfojRkhb9kvfDVpnwB-36" value="1...N" style="text;html=1;align=center;verticalAlign=middle;resizable=0;points=[];autosize=1;strokeColor=none;fillColor=none;" vertex="1" parent="1">
          <mxGeometry x="350" y="351" width="50" height="30" as="geometry" />
        </mxCell>
        <mxCell id="M_mfojRkhb9kvfDVpnwB-37" value="1...N" style="text;html=1;align=center;verticalAlign=middle;resizable=0;points=[];autosize=1;strokeColor=none;fillColor=none;" vertex="1" parent="1">
          <mxGeometry x="240" y="211" width="50" height="30" as="geometry" />
        </mxCell>
        <mxCell id="M_mfojRkhb9kvfDVpnwB-38" value="N...1" style="text;html=1;align=center;verticalAlign=middle;resizable=0;points=[];autosize=1;strokeColor=none;fillColor=none;" vertex="1" parent="1">
          <mxGeometry x="340" y="141" width="50" height="30" as="geometry" />
        </mxCell>
        <mxCell id="M_mfojRkhb9kvfDVpnwB-39" value="" style="endArrow=none;html=1;rounded=0;entryX=0.5;entryY=1;entryDx=0;entryDy=0;exitX=0.5;exitY=0;exitDx=0;exitDy=0;" edge="1" parent="1" source="M_mfojRkhb9kvfDVpnwB-2" target="M_mfojRkhb9kvfDVpnwB-32">
          <mxGeometry width="50" height="50" relative="1" as="geometry">
            <mxPoint x="470" y="230" as="sourcePoint" />
            <mxPoint x="520" y="180" as="targetPoint" />
          </mxGeometry>
        </mxCell>
        <mxCell id="M_mfojRkhb9kvfDVpnwB-40" value="" style="endArrow=none;html=1;rounded=0;entryX=0;entryY=1;entryDx=0;entryDy=0;exitX=1;exitY=0;exitDx=0;exitDy=0;" edge="1" parent="1" source="M_mfojRkhb9kvfDVpnwB-2" target="M_mfojRkhb9kvfDVpnwB-33">
          <mxGeometry width="50" height="50" relative="1" as="geometry">
            <mxPoint x="470" y="230" as="sourcePoint" />
            <mxPoint x="520" y="180" as="targetPoint" />
          </mxGeometry>
        </mxCell>
        <mxCell id="M_mfojRkhb9kvfDVpnwB-41" value="" style="endArrow=none;html=1;rounded=0;entryX=0;entryY=0.5;entryDx=0;entryDy=0;exitX=1;exitY=1;exitDx=0;exitDy=0;" edge="1" parent="1" source="M_mfojRkhb9kvfDVpnwB-2" target="M_mfojRkhb9kvfDVpnwB-34">
          <mxGeometry width="50" height="50" relative="1" as="geometry">
            <mxPoint x="470" y="230" as="sourcePoint" />
            <mxPoint x="520" y="180" as="targetPoint" />
          </mxGeometry>
        </mxCell>
        <mxCell id="M_mfojRkhb9kvfDVpnwB-42" value="&lt;font style=&quot;font-size: 24px;&quot;&gt;Modelo Identidad Relación&lt;/font&gt;" style="text;html=1;align=center;verticalAlign=middle;resizable=0;points=[];autosize=1;strokeColor=none;fillColor=none;" vertex="1" parent="1">
          <mxGeometry x="5" y="10" width="310" height="40" as="geometry" />
        </mxCell>
        <mxCell id="M_mfojRkhb9kvfDVpnwB-43" value="BD Tienda Musical" style="text;html=1;align=center;verticalAlign=middle;resizable=0;points=[];autosize=1;strokeColor=none;fillColor=none;" vertex="1" parent="1">
          <mxGeometry x="340" y="15" width="120" height="30" as="geometry" />
        </mxCell>
        <mxCell id="M_mfojRkhb9kvfDVpnwB-44" value="&lt;font style=&quot;font-size: 24px;&quot;&gt;Modelo Relacional&lt;/font&gt;" style="text;html=1;align=center;verticalAlign=middle;resizable=0;points=[];autosize=1;strokeColor=none;fillColor=none;" vertex="1" parent="1">
          <mxGeometry x="20" y="500" width="220" height="40" as="geometry" />
        </mxCell>
        <mxCell id="M_mfojRkhb9kvfDVpnwB-45" value="Cantante (&lt;u&gt;ID&lt;/u&gt;, Nombre, País)" style="text;html=1;align=center;verticalAlign=middle;resizable=0;points=[];autosize=1;strokeColor=none;fillColor=none;" vertex="1" parent="1">
          <mxGeometry x="40" y="550" width="180" height="30" as="geometry" />
        </mxCell>
        <mxCell id="M_mfojRkhb9kvfDVpnwB-46" value="Disco (&lt;u&gt;ID&lt;/u&gt;, Título, Precio, Genero, Cantante)" style="text;html=1;align=center;verticalAlign=middle;resizable=0;points=[];autosize=1;strokeColor=none;fillColor=none;" vertex="1" parent="1">
          <mxGeometry x="40" y="600" width="260" height="30" as="geometry" />
        </mxCell>
        <mxCell id="M_mfojRkhb9kvfDVpnwB-47" value="Genero (&lt;u&gt;ID&lt;/u&gt;, descripción)" style="text;html=1;align=center;verticalAlign=middle;resizable=0;points=[];autosize=1;strokeColor=none;fillColor=none;" vertex="1" parent="1">
          <mxGeometry x="55" y="650" width="150" height="30" as="geometry" />
        </mxCell>
        <mxCell id="M_mfojRkhb9kvfDVpnwB-48" value="Canción (&lt;u&gt;ID&lt;/u&gt;, Título)" style="text;html=1;align=center;verticalAlign=middle;resizable=0;points=[];autosize=1;strokeColor=none;fillColor=none;" vertex="1" parent="1">
          <mxGeometry x="40" y="695" width="130" height="30" as="geometry" />
        </mxCell>
        <mxCell id="M_mfojRkhb9kvfDVpnwB-50" value="Disco_Canciones( Canción, Disco, Posición)" style="text;html=1;align=center;verticalAlign=middle;resizable=0;points=[];autosize=1;strokeColor=none;fillColor=none;" vertex="1" parent="1">
          <mxGeometry x="268" y="697" width="260" height="30" as="geometry" />
        </mxCell>
        <mxCell id="M_mfojRkhb9kvfDVpnwB-51" value="" style="endArrow=classic;html=1;rounded=0;exitX=0.506;exitY=0.119;exitDx=0;exitDy=0;exitPerimeter=0;" edge="1" parent="1" source="M_mfojRkhb9kvfDVpnwB-50">
          <mxGeometry width="50" height="50" relative="1" as="geometry">
            <mxPoint x="400" y="680" as="sourcePoint" />
            <mxPoint x="110" y="698" as="targetPoint" />
            <Array as="points">
              <mxPoint x="400" y="680" />
              <mxPoint x="110" y="680" />
            </Array>
          </mxGeometry>
        </mxCell>
        <mxCell id="M_mfojRkhb9kvfDVpnwB-53" value="" style="endArrow=classic;html=1;rounded=0;exitX=0.662;exitY=0.1;exitDx=0;exitDy=0;exitPerimeter=0;entryX=0.221;entryY=0.942;entryDx=0;entryDy=0;entryPerimeter=0;" edge="1" parent="1" source="M_mfojRkhb9kvfDVpnwB-50" target="M_mfojRkhb9kvfDVpnwB-46">
          <mxGeometry width="50" height="50" relative="1" as="geometry">
            <mxPoint x="430" y="740" as="sourcePoint" />
            <mxPoint x="430" y="640" as="targetPoint" />
            <Array as="points">
              <mxPoint x="440" y="640" />
              <mxPoint x="100" y="640" />
            </Array>
          </mxGeometry>
        </mxCell>
        <mxCell id="M_mfojRkhb9kvfDVpnwB-54" value="" style="endArrow=classic;html=1;rounded=0;exitX=0.863;exitY=0.087;exitDx=0;exitDy=0;exitPerimeter=0;" edge="1" parent="1" source="M_mfojRkhb9kvfDVpnwB-46">
          <mxGeometry width="50" height="50" relative="1" as="geometry">
            <mxPoint x="430" y="740" as="sourcePoint" />
            <mxPoint x="116" y="570" as="targetPoint" />
            <Array as="points">
              <mxPoint x="260" y="590" />
              <mxPoint x="117" y="590" />
            </Array>
          </mxGeometry>
        </mxCell>
        <mxCell id="M_mfojRkhb9kvfDVpnwB-55" value="Richard Chamba" style="text;html=1;align=center;verticalAlign=middle;resizable=0;points=[];autosize=1;strokeColor=none;fillColor=none;" vertex="1" parent="1">
          <mxGeometry x="485" y="18" width="110" height="30" as="geometry" />
        </mxCell>
        <mxCell id="M_mfojRkhb9kvfDVpnwB-56" value="" style="endArrow=classic;html=1;rounded=0;exitX=0.614;exitY=0.942;exitDx=0;exitDy=0;exitPerimeter=0;" edge="1" parent="1" source="M_mfojRkhb9kvfDVpnwB-46">
          <mxGeometry width="50" height="50" relative="1" as="geometry">
            <mxPoint x="430" y="540" as="sourcePoint" />
            <mxPoint x="120" y="660" as="targetPoint" />
            <Array as="points">
              <mxPoint x="200" y="646" />
              <mxPoint x="120" y="646" />
            </Array>
          </mxGeometry>
        </mxCell>
      </root>
    </mxGraphModel>
  </diagram>
</mxfile>
